<?xml version="1.0" encoding="UTF-8"?>
<svg id="Layer_2" data-name="Layer 2" xmlns="http://www.w3.org/2000/svg" viewBox="0 0 40 40">
  <defs>
    <style>
      .cls-1 {
        fill: url(#linear-gradient-2);
      }
    </style>
    <linearGradient id="linear-gradient-2" x1="0" y1="16.69" x2="36.86" y2="16.69" gradientUnits="userSpaceOnUse">
      <stop offset="0" stop-color="#f78f2c"/>
      <stop offset="1" stop-color="#ffcd70"/>
    </linearGradient>
  </defs>
  <g id="Layer_1-2" data-name="Layer 1">
    <path class="cls-1" d="m18.42,2.83l4.76,4.76,1.59,7.93h3.17l1.59-3.17h4.76l-2.38,9.51h.79v3.17H4.15v-3.17h.8l-2.39-9.51h4.76l1.59,3.17h3.17l1.59-7.93,4.75-4.76m0,15.86l1.59-3.17-1.59-3.17-1.58,3.17,1.58,3.17m12.69,7.93v4.76H5.74v-4.76h25.38M18.42,0l-1.41,1.42-4.75,4.76-.43.43-.12.59-1.27,6.32h-.3l-1.04-2.07-.55-1.1H0l.63,2.49,1.76,7.02h-.24v7.17h1.59v6.35h29.38v-6.35h1.59v-7.17h-.23l1.76-7.02.62-2.49h-8.56l-.55,1.1-1.04,2.07h-.3l-1.27-6.32-.12-.59-.43-.43-4.76-4.76-1.42-1.42h0Z"/>
  </g>
</svg>
